<svg width="19" height="19" viewBox="0 0 19 19" fill="none" xmlns="http://www.w3.org/2000/svg">
<path d="M17.2172 0.812723L3.08218 1.92186C2.97402 1.93072 2.87157 1.97756 2.79288 2.05624L1.00741 3.84171C0.858112 3.99101 0.972253 4.24234 1.18057 4.2247L14.284 3.19767L2.47769 15.004C2.38892 15.0928 2.3878 15.2369 2.47519 15.3243L3.66694 16.5161C3.75434 16.6035 3.89847 16.6023 3.98724 16.5136L15.7916 4.70924L14.7645 17.8127C14.7489 18.023 14.9982 18.1352 15.1475 17.9859L16.9935 16.1399C17.0319 16.1015 17.0563 16.0493 17.0587 15.9952L18.1785 1.77407C18.1886 1.64444 18.1707 1.51458 18.1262 1.39329C18.0816 1.27199 18.0114 1.16207 17.9203 1.07095C17.8292 0.979824 17.7193 0.909619 17.598 0.865072C17.4767 0.820526 17.3468 0.802675 17.2172 0.812723Z" fill="#B5C0C4"/>
</svg>
