<svg width="20" height="19" viewBox="0 0 20 19" fill="none" xmlns="http://www.w3.org/2000/svg">
<path d="M2.48836 7.70834C2.48631 7.8287 2.52262 7.94681 2.59248 8.04702C2.66235 8.14722 2.76247 8.22479 2.87956 8.26943L8.85077 10.55L11.2396 16.2512C11.2858 16.3615 11.3655 16.456 11.4685 16.5226C11.5715 16.5892 11.693 16.6247 11.8174 16.6247H11.8274C11.9533 16.6228 12.0757 16.5844 12.1783 16.5147C12.281 16.4449 12.359 16.347 12.402 16.234L17.3775 3.1715C17.4182 3.06523 17.4263 2.95007 17.4008 2.83957C17.3753 2.72907 17.3172 2.62783 17.2334 2.54779C17.1496 2.46774 17.0436 2.41222 16.9279 2.38776C16.8122 2.3633 16.6915 2.37091 16.5802 2.40971L2.8976 7.15971C2.77916 7.20094 2.67662 7.27552 2.60355 7.37359C2.53047 7.47166 2.49031 7.5886 2.48836 7.70893V7.70834Z" fill="#353F4B"/>
</svg>
