<svg width="21" height="21" viewBox="0 0 21 21" fill="none" xmlns="http://www.w3.org/2000/svg">
<g clip-path="url(#clip0_84_623)">
<path d="M19.747 3.52523L17.111 0.891743C16.9251 0.704982 16.7041 0.5568 16.4607 0.455709C16.2173 0.354618 15.9563 0.30261 15.6928 0.302673C15.1557 0.302673 14.6508 0.513055 14.2721 0.891743L11.4356 3.72818C11.2489 3.91413 11.1007 4.13514 10.9996 4.37852C10.8985 4.62191 10.8465 4.88286 10.8466 5.14641C10.8466 5.6835 11.057 6.18842 11.4356 6.5671L13.5098 8.64122C13.0243 9.71135 12.3493 10.6849 11.5173 11.5148C10.6875 12.3487 9.71405 13.0262 8.64376 13.5147L6.56964 11.4405C6.3837 11.2538 6.16269 11.1056 5.9193 11.0045C5.67592 10.9034 5.41496 10.8514 5.15142 10.8515C4.61433 10.8515 4.10941 11.0618 3.73072 11.4405L0.891805 14.2745C0.704815 14.4608 0.556505 14.6822 0.45541 14.926C0.354314 15.1699 0.302428 15.4313 0.302736 15.6952C0.302736 16.2323 0.513118 16.7372 0.891805 17.1159L3.52282 19.7469C4.12674 20.3533 4.96084 20.6973 5.81722 20.6973C5.9979 20.6973 6.17115 20.6825 6.34193 20.6528C9.67834 20.1033 12.9875 18.3287 15.6581 15.6605C18.3263 12.9949 20.0984 9.68818 20.6553 6.34187C20.8236 5.31966 20.4845 4.26775 19.747 3.52523Z" fill="#FFD500"/>
</g>
<defs>
<clipPath id="clip0_84_623">
<rect width="21" height="21" fill="white"/>
</clipPath>
</defs>
</svg>
