<svg width="40" height="45" viewBox="0 0 40 45" fill="none" xmlns="http://www.w3.org/2000/svg">
<g clip-path="url(#clip0_84_651)">
<path d="M20.9846 0.0374995C23.4408 0 25.8783 0.0187498 28.3158 0C28.4658 2.86871 29.4971 5.79368 31.5971 7.81865C33.6971 9.89988 36.6596 10.8561 39.5471 11.1749V18.731C36.8471 18.6373 34.1283 18.0748 31.6721 16.9123C30.6034 16.4248 29.6096 15.8061 28.6346 15.1686C28.6158 20.6435 28.6533 26.1184 28.5971 31.5746C28.4471 34.1996 27.5846 36.8058 26.0658 38.962C23.6096 42.562 19.3534 44.9057 14.9846 44.9807C12.3034 45.1307 9.6221 44.3994 7.3346 43.0495C3.5471 40.8182 0.884601 36.7308 0.490851 32.3433C0.453351 31.4059 0.434601 30.4684 0.472101 29.5496C0.809601 25.9872 2.5721 22.5747 5.3096 20.2497C8.4221 17.5498 12.7721 16.256 16.8408 17.0248C16.8783 19.7998 16.7659 22.5747 16.7659 25.3497C14.9096 24.7497 12.7346 24.9184 11.1034 26.0434C9.9221 26.8122 9.0221 27.9934 8.55335 29.3246C8.1596 30.2809 8.2721 31.3309 8.29085 32.3433C8.74085 35.4183 11.7034 38.0058 14.8534 37.7245C16.9534 37.7058 18.9596 36.487 20.0471 34.7058C20.4033 34.0871 20.7971 33.4496 20.8159 32.7183C21.0034 29.3621 20.9284 26.0247 20.9471 22.6685C20.9659 15.1123 20.9284 7.5749 20.9846 0.0374995Z" fill="#353F4B"/>
</g>
<defs>
<clipPath id="clip0_84_651">
<rect width="40" height="45" fill="white"/>
</clipPath>
</defs>
</svg>
