<svg width="50" height="30" viewBox="0 0 50 30" fill="none" xmlns="http://www.w3.org/2000/svg">
<path d="M49.923 2.95309C50.3158 4.03642 49.0351 6.52471 46.0808 10.4179C45.671 10.9596 45.116 11.679 44.4159 12.5761C43.7328 13.4394 43.2632 14.0488 43.0071 14.4043C42.7509 14.7597 42.4905 15.1787 42.2258 15.6611C41.9611 16.1435 41.8587 16.499 41.9184 16.7275C41.9782 16.956 42.0892 17.248 42.2514 17.6035C42.4137 17.959 42.6911 18.3229 43.0839 18.6953C43.4767 19.0677 43.9633 19.5162 44.5439 20.041C44.6122 20.0748 44.6549 20.1087 44.672 20.1425C47.0798 22.36 48.7106 24.2304 49.5644 25.7539C49.6157 25.8385 49.6712 25.9443 49.7309 26.0713C49.7907 26.1982 49.8505 26.4225 49.9102 26.7441C49.97 27.0657 49.9657 27.3535 49.8974 27.6074C49.8291 27.8613 49.6157 28.094 49.2571 28.3056C48.8984 28.5172 48.3947 28.623 47.7458 28.623L41.1884 28.7246C40.7786 28.8092 40.3004 28.7669 39.754 28.5976C39.2075 28.4284 38.7635 28.2422 38.422 28.039L37.9097 27.7343C37.3974 27.3789 36.7997 26.8372 36.1167 26.1093C35.4336 25.3815 34.8488 24.7256 34.3621 24.1416C33.8754 23.5576 33.3546 23.0667 32.7996 22.6689C32.2446 22.2711 31.7622 22.1399 31.3523 22.2754C31.3011 22.2923 31.2328 22.3219 31.1474 22.3642C31.062 22.4065 30.9169 22.5293 30.712 22.7324C30.5071 22.9355 30.3235 23.1852 30.1613 23.4814C29.999 23.7776 29.8539 24.2177 29.7258 24.8017C29.5977 25.3857 29.5422 26.0416 29.5593 26.7695C29.5593 27.0234 29.5294 27.2562 29.4697 27.4677C29.4099 27.6793 29.3459 27.8359 29.2775 27.9375L29.1751 28.0644C28.8677 28.386 28.4152 28.5722 27.8175 28.623H24.8718C23.6594 28.6907 22.4128 28.5511 21.1321 28.2041C19.8513 27.8571 18.7285 27.4085 17.7637 26.8584C16.7989 26.3082 15.9195 25.7496 15.1254 25.1826C14.3313 24.6155 13.7294 24.1289 13.3196 23.7226L12.6792 23.1133C12.5084 22.944 12.2736 22.6901 11.9748 22.3515C11.6759 22.013 11.0655 21.2428 10.1433 20.041C9.2212 18.8392 8.31614 17.5612 7.42817 16.207C6.54019 14.8528 5.49425 13.067 4.29036 10.8496C3.08647 8.63213 1.97222 6.33004 0.947634 3.94333C0.845175 3.67249 0.793945 3.44398 0.793945 3.25778C0.793945 3.07158 0.81956 2.93616 0.87079 2.85153L0.973249 2.69918C1.2294 2.37757 1.71608 2.21676 2.43329 2.21676L9.45173 2.16598C9.65665 2.19984 9.85303 2.25485 10.0409 2.33102C10.2287 2.40719 10.3653 2.47913 10.4507 2.54684L10.5788 2.62301C10.852 2.80921 11.0569 3.08004 11.1935 3.43551C11.5351 4.28187 11.9278 5.15784 12.3718 6.06344C12.8158 6.96904 13.1659 7.65882 13.422 8.13278L13.8319 8.86911C14.3271 9.88473 14.8052 10.7649 15.2663 11.5097C15.7273 12.2545 16.1415 12.8343 16.5086 13.249C16.8757 13.6637 17.2301 13.9896 17.5716 14.2265C17.9131 14.4635 18.2034 14.582 18.4425 14.582C18.6816 14.582 18.9121 14.5397 19.1341 14.455C19.1683 14.4381 19.211 14.3958 19.2622 14.3281C19.3134 14.2604 19.4159 14.0742 19.5696 13.7695C19.7232 13.4648 19.8385 13.067 19.9154 12.5761C19.9922 12.0853 20.0733 11.3997 20.1587 10.5195C20.2441 9.63929 20.2441 8.58135 20.1587 7.34567C20.1245 6.66859 20.0477 6.05075 19.9282 5.49215C19.8086 4.93356 19.6891 4.54424 19.5696 4.32418L19.4159 4.0195C18.989 3.44398 18.2632 3.08004 17.2386 2.9277C17.0166 2.89385 17.0593 2.69072 17.3667 2.31832C17.6399 1.99671 17.9644 1.7428 18.34 1.55661C19.2451 1.1165 21.2857 0.913377 24.462 0.947231C25.8622 0.964158 27.0149 1.07418 27.92 1.27731C28.2615 1.36194 28.5475 1.4762 28.7781 1.62008C29.0086 1.76396 29.1836 1.96709 29.3032 2.22946C29.4227 2.49183 29.5124 2.76266 29.5721 3.04196C29.6319 3.32125 29.6618 3.70635 29.6618 4.19723C29.6618 4.68812 29.6532 5.15361 29.6362 5.59372C29.6191 6.03382 29.5977 6.6305 29.5721 7.38376C29.5465 8.13701 29.5337 8.83525 29.5337 9.47848C29.5337 9.66468 29.5252 10.0201 29.5081 10.5449C29.491 11.0696 29.4867 11.4759 29.4953 11.7636C29.5038 12.0514 29.5337 12.3942 29.5849 12.792C29.6362 13.1897 29.7343 13.5198 29.8795 13.7822C30.0246 14.0446 30.2168 14.2519 30.4558 14.4043C30.5924 14.4381 30.7376 14.472 30.8913 14.5058C31.045 14.5397 31.267 14.4466 31.5573 14.2265C31.8476 14.0065 32.172 13.7145 32.5306 13.3506C32.8892 12.9866 33.3332 12.4196 33.8626 11.6494C34.392 10.8792 34.9726 9.96937 35.6044 8.91989C36.629 7.15947 37.5426 5.25517 38.3452 3.207C38.4135 3.03773 38.4989 2.88961 38.6013 2.76266C38.7038 2.63571 38.7977 2.54684 38.8831 2.49606L38.9855 2.41989L39.1136 2.35641L39.4466 2.28024L39.9589 2.26754L47.336 2.21676C48.0019 2.13213 48.5484 2.15329 48.9753 2.28024C49.4022 2.40719 49.6669 2.54684 49.7694 2.69918L49.923 2.95309Z" fill="#353F4B"/>
</svg>
